# xmcd
#
# Track frame offsets: 
#        150
#        20990
#        44919
#
# Disc length: 894 seconds
#
# Revision: 0
# Processed by: cddbd v1.5.2PL0 Copyright (c) Steve Scherf et al.
# Submitted via: ExactAudioCopy v0.99pb5
#
DISCID=2a037c03
DTITLE=Komputer - Headphones and Ringtones
DYEAR=2007
DGENRE=Electronic
TTITLE0=Headphones and Ringtones (Mister Midi remix)
TTITLE1=Headphones and Ringtones (Addison Richards Mix)
TTITLE2=Headphones and Ringtones (elektrolad remix)
EXTD=
EXTT0=
EXTT1=
EXTT2=
PLAYORDER=
